<svg xmlns="http://www.w3.org/2000/svg" width="64" height="64" fill="none" stroke="#f97316" stroke-width="3"><path d="M21.68 42.22h15.49a1.68 1.68 0 0 0 1.68-1.68l5.85-21.42a1.68 1.68 0 0 0-1.7-1.68H17.61a1.69 1.69 0 0 0-1.69 1.68l-5 21.42a1.68 1.68 0 0 0 1.68 1.68h2.18"/><path d="M41.66 42.22h-3.47l5-17.29h8.22a.85.85 0 0 1 .65.3l3.58 6.3a.81.81 0 0 1 .2.53l-3.33 10.16h-3.6"/><ellipse cx="18.31" cy="43.31" rx="3.71" ry="3.76"/><ellipse cx="45.35" cy="43.31" rx="3.71" ry="3.76"/><path stroke-linecap="round" d="M23.25 22.36H6.87M20.02 27.6H8.45M21.19 33.5H3.21"/></svg>